<?xml version="1.0" encoding="utf-8"?>
<!-- Generator: Adobe Illustrator 23.0.2, SVG Export Plug-In . SVG Version: 6.00 Build 0)  -->
<svg version="1.1" id="レイヤー_1" xmlns="http://www.w3.org/2000/svg" xmlns:xlink="http://www.w3.org/1999/xlink" x="0px"
	 y="0px" viewBox="0 0 979.6 78.2" style="enable-background:new 0 0 979.6 78.2;" xml:space="preserve">
<style type="text/css">
	.st0{enable-background:new    ;}
	.st1{fill:#BAAA75;}
</style>
<g class="st0">
	<path class="st1" d="M50,4v58.1h-6.8L8.3,18.8v43.3H0V4h6.8l34.9,43.3V4H50z"/>
	<path class="st1" d="M67.4,4h24.5c6.1,0,11.6,1.2,16.4,3.7c4.8,2.4,8.5,5.9,11.1,10.3c2.6,4.4,3.9,9.4,3.9,15.1
		c0,5.7-1.3,10.7-3.9,15.1c-2.6,4.4-6.3,7.8-11.1,10.2c-4.8,2.4-10.2,3.7-16.4,3.7H67.4V4z M91.4,54.9c4.7,0,8.8-0.9,12.4-2.7
		c3.6-1.8,6.3-4.4,8.3-7.7c1.9-3.3,2.9-7.1,2.9-11.4c0-4.3-1-8.1-2.9-11.4c-1.9-3.3-4.7-5.9-8.3-7.7c-3.6-1.8-7.7-2.7-12.4-2.7H75.7
		v43.7H91.4z"/>
	<path class="st1" d="M146.2,58.9c-4.7-2.6-8.3-6.1-11-10.6c-2.7-4.5-4-9.6-4-15.2c0-5.6,1.3-10.7,4-15.2c2.7-4.5,6.3-8.1,11-10.6
		c4.7-2.6,10-3.9,15.8-3.9c4.5,0,8.7,0.8,12.5,2.3c3.8,1.5,7,3.8,9.6,6.8l-5.4,5.2c-4.4-4.6-9.8-6.9-16.4-6.9c-4.3,0-8.2,1-11.7,2.9
		c-3.5,1.9-6.2,4.6-8.2,8c-2,3.4-2.9,7.2-2.9,11.4c0,4.2,1,8,2.9,11.4c2,3.4,4.7,6.1,8.2,8c3.5,1.9,7.4,2.9,11.7,2.9
		c6.5,0,11.9-2.3,16.4-7l5.4,5.2c-2.7,3-5.9,5.3-9.7,6.8c-3.8,1.5-8,2.3-12.5,2.3C156.1,62.7,150.9,61.5,146.2,58.9z"/>
	<path class="st1" d="M226.1,14.3v3.8h12.8v6.6h-12.6v37.4h-8V24.7h-7.5v-6.6h7.5v-3.9c0-4.4,1.3-7.8,3.8-10.4
		c2.5-2.5,6.1-3.8,10.7-3.8c1.8,0,3.4,0.2,5,0.7c1.5,0.4,2.9,1.1,4,1.9l-2.4,6.1c-1.8-1.4-3.9-2.1-6.1-2.1
		C228.5,6.6,226.1,9.1,226.1,14.3z"/>
	<path class="st1" d="M252.8,59.7c-3.5-1.9-6.2-4.6-8.2-8c-2-3.4-2.9-7.3-2.9-11.6c0-4.3,1-8.2,2.9-11.6c2-3.4,4.7-6.1,8.2-8
		c3.5-1.9,7.4-2.9,11.8-2.9c4.4,0,8.3,1,11.7,2.9c3.5,1.9,6.2,4.6,8.1,8c2,3.4,2.9,7.3,2.9,11.6c0,4.3-1,8.2-2.9,11.6
		c-2,3.4-4.7,6.1-8.1,8c-3.5,1.9-7.4,2.9-11.7,2.9C260.2,62.6,256.3,61.6,252.8,59.7z M272.2,53.7c2.2-1.3,4-3.1,5.3-5.5
		c1.3-2.4,1.9-5,1.9-8.1c0-3-0.6-5.7-1.9-8.1c-1.3-2.4-3-4.2-5.3-5.4c-2.2-1.3-4.8-1.9-7.6-1.9c-2.8,0-5.4,0.6-7.6,1.9
		c-2.2,1.3-4,3.1-5.3,5.4c-1.3,2.4-2,5.1-2,8.1c0,3,0.6,5.7,2,8.1c1.3,2.4,3.1,4.2,5.3,5.5c2.2,1.3,4.8,2,7.6,2
		C267.4,55.6,270,55,272.2,53.7z"/>
	<path class="st1" d="M312.2,19.7c2.7-1.3,6-2,9.9-2v7.7c-0.4-0.1-1.1-0.1-1.8-0.1c-4.3,0-7.7,1.3-10.2,3.9c-2.5,2.6-3.7,6.2-3.7,11
		v21.9h-8v-44h7.6v7.4C307.5,22.9,309.5,21,312.2,19.7z"/>
	<path class="st1" d="M356,4h24.5c6.1,0,11.6,1.2,16.4,3.7c4.8,2.4,8.5,5.9,11.1,10.3c2.6,4.4,3.9,9.4,3.9,15.1
		c0,5.7-1.3,10.7-3.9,15.1c-2.6,4.4-6.3,7.8-11.1,10.2c-4.8,2.4-10.2,3.7-16.4,3.7H356V4z M380,54.9c4.7,0,8.8-0.9,12.4-2.7
		c3.6-1.8,6.3-4.4,8.3-7.7c1.9-3.3,2.9-7.1,2.9-11.4c0-4.3-1-8.1-2.9-11.4c-1.9-3.3-4.7-5.9-8.3-7.7c-3.6-1.8-7.7-2.7-12.4-2.7
		h-15.7v43.7H380z"/>
	<path class="st1" d="M463,42.7h-35.7c0.5,3.9,2.2,7,5.1,9.3c2.9,2.4,6.5,3.5,10.8,3.5c5.3,0,9.5-1.8,12.7-5.3l4.4,5.1
		c-2,2.3-4.5,4.1-7.4,5.3c-3,1.2-6.3,1.8-9.9,1.8c-4.6,0-8.8-1-12.4-2.9c-3.6-1.9-6.4-4.6-8.3-8c-2-3.4-2.9-7.3-2.9-11.6
		c0-4.3,1-8.1,2.9-11.5c1.9-3.4,4.5-6.1,7.9-8c3.3-1.9,7.1-2.9,11.3-2.9c4.2,0,8,1,11.2,2.9c3.3,1.9,5.9,4.6,7.7,8
		c1.9,3.4,2.8,7.4,2.8,11.8C463.1,40.9,463.1,41.7,463,42.7z M431.8,27.9c-2.6,2.3-4.1,5.4-4.5,9.1h28.2c-0.4-3.7-2-6.7-4.5-9.1
		c-2.6-2.4-5.8-3.5-9.6-3.5S434.4,25.6,431.8,27.9z"/>
	<path class="st1" d="M512.3,18.1l-19.3,44h-8.1l-19.3-44h8.3L489,53.4l15.4-35.3H512.3z"/>
	<path class="st1" d="M558.1,42.7h-35.7c0.5,3.9,2.2,7,5.1,9.3c2.9,2.4,6.5,3.5,10.8,3.5c5.3,0,9.5-1.8,12.7-5.3l4.4,5.1
		c-2,2.3-4.5,4.1-7.4,5.3c-3,1.2-6.3,1.8-9.9,1.8c-4.6,0-8.8-1-12.4-2.9c-3.6-1.9-6.4-4.6-8.3-8c-2-3.4-2.9-7.3-2.9-11.6
		c0-4.3,1-8.1,2.9-11.5c1.9-3.4,4.5-6.1,7.9-8c3.3-1.9,7.1-2.9,11.3-2.9c4.2,0,8,1,11.2,2.9c3.3,1.9,5.9,4.6,7.7,8
		c1.9,3.4,2.8,7.4,2.8,11.8C558.3,40.9,558.2,41.7,558.1,42.7z M526.9,27.9c-2.6,2.3-4.1,5.4-4.5,9.1h28.2c-0.4-3.7-2-6.7-4.5-9.1
		c-2.6-2.4-5.8-3.5-9.6-3.5C532.7,24.4,529.5,25.6,526.9,27.9z"/>
	<path class="st1" d="M569.3,0.5h8v61.6h-8V0.5z"/>
	<path class="st1" d="M599.5,59.7c-3.5-1.9-6.2-4.6-8.2-8c-2-3.4-2.9-7.3-2.9-11.6c0-4.3,1-8.2,2.9-11.6c2-3.4,4.7-6.1,8.2-8
		c3.5-1.9,7.4-2.9,11.8-2.9s8.3,1,11.7,2.9c3.5,1.9,6.2,4.6,8.1,8c2,3.4,2.9,7.3,2.9,11.6c0,4.3-1,8.2-2.9,11.6
		c-2,3.4-4.7,6.1-8.1,8c-3.5,1.9-7.4,2.9-11.7,2.9S603,61.6,599.5,59.7z M618.9,53.7c2.2-1.3,4-3.1,5.3-5.5c1.3-2.4,1.9-5,1.9-8.1
		c0-3-0.6-5.7-1.9-8.1c-1.3-2.4-3-4.2-5.3-5.4c-2.2-1.3-4.8-1.9-7.6-1.9c-2.8,0-5.4,0.6-7.6,1.9c-2.2,1.3-4,3.1-5.3,5.4
		c-1.3,2.4-2,5.1-2,8.1c0,3,0.6,5.7,2,8.1c1.3,2.4,3.1,4.2,5.3,5.5c2.2,1.3,4.8,2,7.6,2C614.1,55.6,616.6,55,618.9,53.7z"/>
	<path class="st1" d="M679.9,20.5c3.4,1.9,6,4.5,7.9,7.9c1.9,3.4,2.9,7.3,2.9,11.7c0,4.4-1,8.3-2.9,11.7c-1.9,3.4-4.6,6-7.9,7.9
		c-3.4,1.9-7.2,2.8-11.5,2.8c-3.2,0-6-0.6-8.7-1.8c-2.6-1.2-4.9-3-6.7-5.3v22.7h-8V18.1h7.6v7c1.8-2.4,4-4.3,6.7-5.5
		c2.7-1.2,5.7-1.9,9-1.9C672.7,17.7,676.6,18.6,679.9,20.5z M675.4,53.7c2.2-1.3,4-3.1,5.3-5.5c1.3-2.4,2-5,2-8.1c0-3-0.7-5.7-2-8.1
		c-1.3-2.4-3.1-4.2-5.3-5.4c-2.2-1.3-4.8-1.9-7.6-1.9c-2.8,0-5.3,0.7-7.5,2c-2.2,1.3-4,3.1-5.3,5.4c-1.3,2.3-2,5-2,8.1
		c0,3,0.6,5.7,1.9,8.1c1.3,2.4,3,4.2,5.3,5.5c2.3,1.3,4.8,2,7.6,2C670.6,55.6,673.2,55,675.4,53.7z"/>
	<path class="st1" d="M741.3,42.7h-35.7c0.5,3.9,2.2,7,5.1,9.3c2.9,2.4,6.5,3.5,10.8,3.5c5.3,0,9.5-1.8,12.7-5.3l4.4,5.1
		c-2,2.3-4.5,4.1-7.4,5.3c-3,1.2-6.3,1.8-9.9,1.8c-4.6,0-8.8-1-12.4-2.9c-3.6-1.9-6.4-4.6-8.3-8c-2-3.4-2.9-7.3-2.9-11.6
		c0-4.3,1-8.1,2.9-11.5c1.9-3.4,4.5-6.1,7.9-8c3.3-1.9,7.1-2.9,11.3-2.9c4.2,0,8,1,11.2,2.9c3.3,1.9,5.9,4.6,7.7,8
		c1.9,3.4,2.8,7.4,2.8,11.8C741.5,40.9,741.5,41.7,741.3,42.7z M710.2,27.9c-2.6,2.3-4.1,5.4-4.5,9.1h28.2c-0.4-3.7-2-6.7-4.5-9.1
		c-2.6-2.4-5.8-3.5-9.6-3.5C716,24.4,712.8,25.6,710.2,27.9z"/>
	<path class="st1" d="M766.3,19.7c2.7-1.3,6-2,9.9-2v7.7c-0.4-0.1-1.1-0.1-1.8-0.1c-4.3,0-7.7,1.3-10.2,3.9c-2.5,2.6-3.7,6.2-3.7,11
		v21.9h-8v-44h7.6v7.4C761.6,22.9,763.6,21,766.3,19.7z"/>
	<path class="st1" d="M788.6,61.1c-3.3-1-5.9-2.2-7.8-3.7l3.3-6.3c1.9,1.4,4.3,2.5,7.1,3.3c2.8,0.8,5.6,1.2,8.4,1.2
		c7,0,10.5-2,10.5-6c0-1.3-0.5-2.4-1.4-3.2c-0.9-0.8-2.1-1.3-3.5-1.7c-1.4-0.4-3.4-0.8-6-1.2c-3.5-0.6-6.4-1.2-8.7-1.9
		c-2.2-0.7-4.2-1.9-5.8-3.7c-1.6-1.7-2.4-4.1-2.4-7.2c0-4,1.7-7.2,5-9.6c3.3-2.4,7.8-3.6,13.4-3.6c2.9,0,5.9,0.4,8.8,1.1
		c2.9,0.7,5.3,1.7,7.2,2.9l-3.4,6.3c-3.6-2.3-7.8-3.5-12.7-3.5c-3.4,0-5.9,0.6-7.7,1.7c-1.8,1.1-2.7,2.6-2.7,4.4
		c0,1.4,0.5,2.6,1.5,3.4s2.2,1.4,3.7,1.8c1.5,0.4,3.5,0.8,6.2,1.3c3.5,0.6,6.4,1.3,8.6,2c2.2,0.7,4.1,1.9,5.6,3.5
		c1.5,1.7,2.3,4,2.3,7c0,4-1.7,7.2-5.1,9.5c-3.4,2.4-8,3.5-13.9,3.5C795.4,62.6,791.9,62.1,788.6,61.1z"/>
	<path class="st1" d="M888.4,47.6h-30.9l-6.4,14.5h-8.5L868.9,4h8.2l26.4,58.1h-8.7L888.4,47.6z M885.5,40.9L873,12.5l-12.5,28.5
		H885.5z"/>
	<path class="st1" d="M952.6,9.4c4.3,3.6,6.5,8.5,6.5,14.9c0,6.3-2.2,11.3-6.5,14.9c-4.3,3.6-10.2,5.4-17.8,5.4h-14.4v17.6h-8.3V4
		h22.7C942.3,4,948.3,5.8,952.6,9.4z M946.6,33.9c2.8-2.2,4.1-5.5,4.1-9.7s-1.4-7.4-4.1-9.7c-2.8-2.2-6.8-3.4-12-3.4h-14.1v26.1
		h14.1C939.8,37.3,943.8,36.1,946.6,33.9z"/>
	<path class="st1" d="M971.3,4h8.3v58.1h-8.3V4z"/>
</g>
</svg>
